<?xml version="1.0" standalone="no"?>
<!DOCTYPE svg PUBLIC "-//W3C//DTD SVG 20010904//EN"
 "http://www.w3.org/TR/2001/REC-SVG-20010904/DTD/svg10.dtd">
<svg version="1.0" xmlns="http://www.w3.org/2000/svg"
 width="1000.000000pt" height="1000.000000pt" viewBox="0 0 1000.000000 1000.000000"
 preserveAspectRatio="xMidYMid meet">
<metadata>
Created by potrace 1.14, written by Peter Selinger 2001-2017
</metadata>
<g transform="translate(0.000000,1000.000000) scale(0.100000,-0.100000)"
fill="#000000" stroke="none">
<path d="M4560 9049 c-497 -31 -885 -190 -1171 -478 -262 -264 -401 -574 -461
-1031 -47 -357 36 -1607 167 -2516 57 -393 52 -426 -99 -667 -192 -306 -302
-590 -435 -1123 -189 -756 -211 -1317 -64 -1624 96 -201 310 -315 657 -351
143 -15 578 -6 756 16 197 25 382 23 500 -3 116 -27 139 -27 45 -1 -164 46
-205 60 -205 69 0 6 8 10 18 10 33 0 304 70 362 93 60 25 149 77 150 89 0 4
14 28 30 55 44 71 56 152 36 249 -27 134 -98 258 -181 316 -35 25 -45 38 -45
59 0 27 -2 28 -135 59 l-136 32 -38 -44 c-22 -24 -61 -55 -87 -70 -89 -47
-268 -37 -579 32 -212 47 -320 62 -463 62 l-132 1 -40 31 c-118 94 -184 243
-197 441 -7 116 5 201 46 325 18 54 30 115 33 166 4 63 11 95 36 148 85 180
279 337 512 411 71 23 108 28 225 32 125 4 150 2 235 -20 l95 -25 22 27 c34
40 92 153 119 233 45 134 56 218 64 513 4 176 12 292 19 311 14 35 22 37 199
50 54 4 95 12 97 18 2 6 6 59 9 118 l6 106 -83 28 c-251 83 -465 220 -662 426
-115 120 -192 223 -265 358 l-51 95 -11 240 c-13 311 -6 537 20 628 32 110 56
132 223 203 491 207 917 503 1208 839 l52 60 26 -35 c113 -149 307 -290 671
-485 l187 -100 41 -81 c41 -82 70 -187 100 -364 19 -109 19 -208 0 -670 l-12
-315 -33 -63 c-114 -224 -308 -455 -488 -582 -35 -24 -63 -51 -62 -59 0 -9 8
-92 17 -186 l17 -170 55 -7 c30 -3 85 -6 123 -7 37 -1 67 -3 67 -6 0 -3 -7
-47 -15 -98 -8 -50 -22 -171 -32 -267 -21 -219 -24 -772 -5 -960 14 -139 59
-436 67 -450 3 -5 22 -14 43 -21 154 -50 347 -170 499 -312 110 -102 120 -107
239 -107 240 0 424 -132 558 -397 20 -40 34 -73 31 -73 -50 0 -327 -36 -379
-50 -39 -10 -179 -65 -311 -122 -132 -58 -269 -115 -303 -128 l-64 -23 -98 23
-98 23 -99 -65 c-54 -35 -117 -77 -140 -91 l-43 -27 0 -73 c0 -138 29 -252
104 -409 20 -42 36 -78 36 -81 0 -4 -128 -17 -300 -31 -25 -2 14 -2 85 0 72 2
186 -1 255 -6 161 -11 307 -1 840 55 648 68 808 93 1010 157 198 63 308 145
374 280 56 113 69 194 62 383 -6 177 -24 275 -97 532 -162 571 -371 1030 -651
1428 -222 316 -368 462 -654 655 -167 114 -199 142 -237 214 -29 55 -29 192 0
381 104 666 84 1801 -43 2459 -112 577 -447 1020 -922 1218 -228 95 -518 137
-822 117z"/>
<path d="M5273 7315 c-73 -20 -128 -50 -178 -96 -52 -48 -71 -88 -56 -118 20
-37 54 -36 134 4 41 20 99 43 128 50 64 18 178 19 249 4 39 -8 58 -8 80 1 66
27 42 85 -55 135 -50 26 -70 30 -154 32 -62 2 -115 -2 -148 -12z"/>
<path d="M3941 7109 c-137 -24 -271 -123 -271 -200 0 -59 49 -64 149 -13 40
20 105 42 151 51 70 14 93 15 181 3 104 -14 122 -11 143 23 19 29 -13 69 -84
105 -74 37 -173 48 -269 31z"/>
<path d="M5590 6824 c-103 -65 -239 -88 -348 -60 -81 20 -82 20 -82 -6 0 -48
69 -116 147 -144 116 -41 273 18 330 125 22 43 31 105 15 115 -4 2 -32 -11
-62 -30z"/>
<path d="M4221 6610 c-95 -64 -272 -90 -385 -56 -56 17 -67 6 -43 -41 79 -152
322 -170 441 -32 46 54 71 160 38 159 -4 0 -27 -14 -51 -30z"/>
<path d="M5156 6020 c-158 -88 -503 -138 -662 -96 -81 21 -124 -4 -124 -73 0
-75 212 -173 405 -188 133 -9 259 34 398 139 132 98 178 186 124 236 -33 31
-62 27 -141 -18z"/>
<path d="M4538 1243 c7 -3 16 -2 19 1 4 3 -2 6 -13 5 -11 0 -14 -3 -6 -6z"/>
<path d="M4578 1233 c7 -3 16 -2 19 1 4 3 -2 6 -13 5 -11 0 -14 -3 -6 -6z"/>
<path d="M4618 1223 c7 -3 16 -2 19 1 4 3 -2 6 -13 5 -11 0 -14 -3 -6 -6z"/>
<path d="M4668 1213 c7 -3 16 -2 19 1 4 3 -2 6 -13 5 -11 0 -14 -3 -6 -6z"/>
<path d="M4718 1203 c7 -3 16 -2 19 1 4 3 -2 6 -13 5 -11 0 -14 -3 -6 -6z"/>
<path d="M4778 1193 c7 -3 16 -2 19 1 4 3 -2 6 -13 5 -11 0 -14 -3 -6 -6z"/>
<path d="M4848 1183 c6 -2 18 -2 25 0 6 3 1 5 -13 5 -14 0 -19 -2 -12 -5z"/>
<path d="M4963 1173 c15 -2 37 -2 50 0 12 2 0 4 -28 4 -27 0 -38 -2 -22 -4z"/>
</g>
</svg>
